<svg xmlns="http://www.w3.org/2000/svg" viewBox="0 0 36 36" fill="none">
  <path d="M23.3 12.8c.4 0 .9 0 1.3.1-.6-5.3-5.7-9.3-11.6-9.3C6.5 3.6 1 8.4 1 14.2c0 3.3 1.8 6.1 4.8 8.1l-1.2 3.6 4.2-2.1c1.5.3 2.7.6 4.2.6.4 0 .9 0 1.3-.1-.3-.9-.4-1.8-.4-2.8 0-5.2 4.5-8.7 9.4-8.7z" fill="#51C332"/>
  <path d="M13.5 8.2c.9 0 1.5.6 1.5 1.5s-.6 1.5-1.5 1.5S12 10.6 12 9.7s.6-1.5 1.5-1.5zm-7.8 3c.9 0 1.5-.6 1.5-1.5s-.6-1.5-1.5-1.5S4.2 8.8 4.2 9.7s.6 1.5 1.5 1.5z" fill="#fff"/>
  <path d="M35 21.5c0-4.8-4.8-8.7-10.2-8.7-5.7 0-10.2 3.9-10.2 8.7s4.5 8.7 10.2 8.7c1.2 0 2.4-.3 3.6-.6l3.3 1.8-.9-3c2.4-1.8 4.2-4.2 4.2-6.9z" fill="#51C332"/>
  <path d="M21.2 19.7c-.6 0-1.2-.6-1.2-1.2s.6-1.2 1.2-1.2 1.2.6 1.2 1.2-.6 1.2-1.2 1.2zm7.2 0c-.6 0-1.2-.6-1.2-1.2s.6-1.2 1.2-1.2 1.2.6 1.2 1.2-.6 1.2-1.2 1.2z" fill="#fff"/>
</svg>
